<?xml version="1.0" encoding="utf-8"?>
<!-- Generator: Adobe Illustrator 22.0.1, SVG Export Plug-In . SVG Version: 6.00 Build 0)  -->
<svg version="1.1" id="codeguard-3" xmlns="http://www.w3.org/2000/svg" xmlns:xlink="http://www.w3.org/1999/xlink" x="0px"
	 y="0px" viewBox="0 0 375 325" style="enable-background:new 0 0 375 325;" xml:space="preserve">
<style type="text/css">
	.st0{fill:#FEFEFE;}
	.st1{fill:#A5DFFD;}
	.st2{fill:#056CEA;}
	.st3{fill:#76C8FC;}
	.st4{fill:#58AEF0;}
	.st5{fill:#3693E3;}
</style>
<g id="backups">
	<path id="Kształt_1219" class="st0" d="M323,191l52,30v104l-52-30V191z"/>
	<path id="Kształt_1209_kopia_3" class="st1" d="M361,290.7v-2l5.8,3.3v2L361,290.7z M361,282.7l5.8,3.3v2l-5.8-3.3V282.7z
		 M361,276.7l5.8,3.3v2l-5.8-3.3V276.7z M361,270.7l5.8,3.3v2l-5.8-3.3V270.7z M361,264.7l5.8,3.3v2l-5.8-3.3V264.7z M361,258.7
		l5.8,3.3v2l-5.8-3.3V258.7z M361,252.7l5.8,3.3v2l-5.8-3.3V252.7z M361,246.7l5.8,3.3v2l-5.8-3.3V246.7L361,246.7z M361,240.7
		l5.8,3.3v2l-5.8-3.3V240.7z M361,234.7l5.8,3.3v2l-5.8-3.3V234.7z M361,228.7l5.8,3.3v2l-5.8-3.3V228.7z M352,283.7l6,3.4v2l-6-3.4
		V283.7z M352,277.7l6,3.4v2l-6-3.4V277.7z M352,271.7l6,3.4v2l-6-3.4V271.7z M352,265.7l6,3.4v2l-6-3.4V265.7z M352,259.7l6,3.4v2
		l-6-3.4V259.7z M352,253.7l6,3.4v2l-6-3.4V253.7z M352,247.7l6,3.4v2l-6-3.4V247.7z M352,241.7l6,3.4v2l-6-3.4V241.7z M352,235.7
		l6,3.4v2l-6-3.4V235.7z M352,229.7l6,3.4v2l-6-3.4V229.7z M352,223.7l6,3.4v2l-6-3.4V223.7z M349,224l-17.8-10v-2l17.8,10V224
		L349,224z M349,230l-17.8-10v-2l17.8,10V230L349,230z M349,236l-17.8-10v-2l17.8,10V236L349,236z M349,242l-17.8-10v-2l17.8,10V242
		L349,242z M349,248l-17.8-10v-2l17.8,10V248L349,248z M349,254l-17.8-10v-2l17.8,10V254z M349,260l-17.8-10v-2l17.8,10V260z
		 M349,266l-17.8-10v-2l17.8,10V266z M349,272l-17.8-10v-2l17.8,10V272z M349,278l-17.8-10v-2l17.8,10V278z M349,284l-17.8-10v-2
		l17.8,10V284z"/>
	<path id="Prostokąt_zaokrąglony_1258" class="st2" d="M340.5,287.2l15,8.8c0.9,0.5,1.4,1.4,1.5,2.4v4.7c0,0.9-0.7,1.1-1.5,0.7
		l-15-8.8c-0.9-0.5-1.4-1.4-1.5-2.4v-4.7C339,287,339.7,286.8,340.5,287.2z"/>
</g>
<g id="malware">
	<path id="Kształt_1222_kopia_3" class="st3" d="M311.7,240.1l-49.4-28.3c-0.3-0.3-0.8-0.3-1.1,0.1c-0.2,0.2-0.2,0.4-0.2,0.7v44.7
		c0.1,0.9,0.5,1.7,1.3,2.2l49.4,28.3c0.3,0.3,0.8,0.3,1.1-0.1c0.2-0.2,0.2-0.4,0.2-0.7v-44.7C313,241.5,312.5,240.6,311.7,240.1z"/>
	<path id="Kształt_1239" class="st0" d="M296.1,256.9c0.5,0.3,0.8,0.9,0.8,1.5c0.1,0.3-0.1,0.5-0.4,0.6c-0.2,0-0.3,0-0.4-0.1
		l-3.1-1.8c-0.1,0.5-0.2,1-0.4,1.5c1.7,1.6,3.9,4.5,3.9,7.8c0.1,0.3-0.1,0.5-0.4,0.6c-0.2,0-0.3,0-0.4-0.1c-0.5-0.3-0.8-0.9-0.8-1.5
		c0-2.6-2-4.7-2.9-5.4c-1.1,1.6-2.9,2.2-5.4,1.1l-0.1,0l-0.1-0.1c-2.5-1.9-4.4-4.5-5.4-7.4c-0.9-0.3-2.9-0.5-2.9,2.1
		c0.1,0.3-0.1,0.5-0.4,0.6c-0.2,0-0.3,0-0.4-0.1c-0.5-0.3-0.8-0.9-0.8-1.5c0-3.4,2.2-3.7,3.9-3.3c-0.2-0.6-0.3-1.3-0.4-2l-3.1-1.8
		c-0.5-0.3-0.8-0.9-0.8-1.5c-0.1-0.3,0.1-0.5,0.4-0.6c0.2,0,0.3,0,0.4,0.1l2.9,1.7c0-0.5,0-1,0-1.4c-0.6-0.6-1.2-1.2-1.6-2
		c-1.3-2.3-1.9-4.8-1.8-7.4c-0.1-0.3,0.1-0.5,0.4-0.6c0.2,0,0.3,0,0.4,0.1c0.5,0.3,0.8,0.9,0.8,1.5c-0.1,2,0.3,3.9,1.2,5.7
		c0.2,0.3,0.4,0.6,0.7,0.9c0.1-0.2,0.2-0.4,0.4-0.4c0.3-0.1,0.5,0,0.7,0.1c-0.1-0.5-0.2-1.1-0.2-1.7c-0.2-1.1,0.6-2.2,1.7-2.4
		c0.3-0.1,0.6,0,0.9,0.1c0.4-1.3,1.5-1.7,2.8-0.9c1.5,1,2.5,2.5,2.8,4.2c1.5,1.4,2.5,3.3,2.6,5.4c0,0.5-0.1,1.1-0.2,1.6
		c0.3,0.2,0.6,0.5,0.8,0.8c0.1,0.2,0.3,0.5,0.4,0.7c0.3,0.1,0.6,0,0.9-0.1c0.8-0.4,1.2-1.9,1.2-4.2c-0.1-0.3,0.1-0.5,0.4-0.6
		c0.2,0,0.3,0,0.4,0.1c0.5,0.3,0.8,0.9,0.8,1.5c0,3-0.6,4.8-1.8,5.4c-0.5,0.2-1.1,0.3-1.6,0.1c0,0.4,0,0.9,0,1.4L296.1,256.9z
		 M286.5,259.1c3.3,1.4,5-1.2,5-4.6c0-0.8,0-1.7-0.1-2.5c-0.3-0.1-0.6-0.2-0.9-0.3c-0.5-0.2-1.1-0.4-1.9-0.7
		c-0.7-0.3-1.5-0.7-2.1-1.1c-0.8-0.5-1.6-1-2.3-1.6c-0.8-0.6-1.5-1.2-2-1.7c-0.2-0.2-0.5-0.4-0.6-0.6c-0.1,0.8-0.1,1.7-0.1,2.6
		C281.5,252,283.2,256.7,286.5,259.1L286.5,259.1z M286.5,242.9c-1.5-0.9-3.8-1.5-3.8,0.2c-0.1,1.3,0.5,2.5,1.6,3.2
		c0.7,0.5,1.4,1,2.2,1.5c0.6,0.3,1.2,0.7,1.8,0.9c1.9,0.8,1.9-0.2,1.9-1.2C290.3,245.8,288,243.8,286.5,242.9L286.5,242.9z"/>
</g>
<g id="folder">
	<path id="Kształt_1222_kopia" class="st4" d="M311.1,186.8l-26.7-15.2l-5.2-8.9l-16.3-9.3c-0.5-0.4-1.3-0.4-1.7,0.1
		c-0.2,0.3-0.3,0.6-0.3,1V170l52,29.8v-9.7C312.9,188.8,312.2,187.5,311.1,186.8z"/>
	<path id="Kształt_1222_kopia_2" class="st5" d="M311.7,188.1l-49.4-28.3c-0.3-0.3-0.8-0.3-1.1,0.1c-0.2,0.2-0.2,0.4-0.2,0.7v-2
		c-0.1-0.4,0.2-0.8,0.6-0.9c0.2,0,0.5,0,0.7,0.2l21.2,12.1l0.9,1.5l26.7,15.2c1.1,0.7,1.9,2,2,3.4v0.2
		C313,189.5,312.5,188.6,311.7,188.1z"/>
	<path id="Kształt_1222" class="st3" d="M311.7,187.1l-49.4-28.3c-0.3-0.3-0.8-0.3-1.1,0.1c-0.2,0.2-0.2,0.4-0.2,0.7v38.7
		c0.1,0.9,0.5,1.7,1.3,2.2l49.4,28.3c0.3,0.3,0.8,0.3,1.1-0.1c0.2-0.2,0.2-0.4,0.2-0.7v-38.7C313,188.5,312.5,187.6,311.7,187.1z"/>
	<path id="Kształt_1235" class="st0" d="M287.5,206.7c-5.2-3-9.5-10.4-9.5-16.4c0-2.9,1-5.1,2.8-6.1l-1.3-0.8c-0.6-0.4-1-1-1-1.7
		c-0.1-0.3,0.2-0.7,0.5-0.7c0.2,0,0.4,0,0.5,0.1l4.6,2.7v5.3c0.1,0.3-0.2,0.7-0.5,0.7c-0.2,0-0.4,0-0.5-0.1c-0.6-0.4-1-1-1-1.7v-1.2
		c-1.3,0.8-2,2.5-2,4.7c0.3,5.2,3.1,10,7.5,12.9c4.1,2.4,7.5,0.4,7.5-4.3c-0.3-5.2-3.1-10-7.5-12.9c-0.6-0.4-1-1-1-1.7
		c-0.1-0.3,0.2-0.7,0.5-0.7c0.2,0,0.4,0,0.5,0.1c5.2,3,9.5,10.4,9.5,16.4S292.7,209.7,287.5,206.7z M290.2,197.7
		c0,1.8-1.2,2.5-2.7,1.6c-1.6-1.1-2.6-2.9-2.7-4.8c0-1.8,1.2-2.5,2.7-1.6C289.1,194,290.1,195.7,290.2,197.7z"/>
</g>
</svg>
