<?xml version="1.0" encoding="utf-8"?>
<!-- Generator: Adobe Illustrator 22.0.1, SVG Export Plug-In . SVG Version: 6.00 Build 0)  -->
<svg version="1.1" id="codeguard-1" xmlns="http://www.w3.org/2000/svg" xmlns:xlink="http://www.w3.org/1999/xlink" x="0px"
	 y="0px" viewBox="0 0 375 324" style="enable-background:new 0 0 375 324;" xml:space="preserve">
<style type="text/css">
	.st0{fill:#FEFEFE;}
	.st1{fill:#A5DFFD;}
	.st2{fill:#056CEA;}
</style>
<g id="metrics">
	<path id="Kształt_1158_kopia_4" class="st0" d="M0,109l114,66V68L0,1V109z"/>
	<path id="Kształt_1209_kopia_2" class="st1" d="M11,71.3V32l91,53.5V124L11,71.3z M19,89.1c4.4,2.6,8,8.9,8,14.1s-3.6,7.3-8,4.7
		s-8-8.9-8-14.1S14.6,86.5,19,89.1z M19,105.1c3.1,1.8,5.6,0.3,5.6-3.3c-0.2-4-2.3-7.6-5.6-9.9c-3.1-1.8-5.6-0.3-5.6,3.3
		C13.6,99.2,15.7,102.8,19,105.1L19,105.1z M39.8,112l-10.6-6v-2l10.6,6V112z M53,107.1c4.4,2.6,8,8.9,8,14.1s-3.6,7.3-8,4.7
		s-8-8.9-8-14.1S48.6,104.5,53,107.1z M53,123.1c3.1,1.8,5.6,0.3,5.6-3.3c-0.2-4-2.3-7.6-5.6-9.9c-3.1-1.8-5.6-0.3-5.6,3.3
		C47.6,117.2,49.7,120.8,53,123.1L53,123.1z M73.8,130l-10.6-6v-2l10.6,6V130z M89,126.1c4.4,2.6,8,8.9,8,14.1s-3.6,7.3-8,4.7
		s-8-8.9-8-14.1S84.6,123.5,89,126.1z M89,142.1c3.1,1.8,5.6,0.3,5.6-3.3c-0.2-4-2.3-7.6-5.6-9.9c-3.1-1.8-5.6-0.3-5.6,3.3
		C83.6,136.2,85.7,139.8,89,142.1L89,142.1z"/>
	<path id="Kształt_1158_kopia_11" class="st2" d="M19.3,92.1C19.2,92,19.1,92,19,91.9c-3.1-1.8-5.6-0.3-5.6,3.3
		c0.2,4,2.3,7.6,5.6,9.9c0.9,0.6,2,0.9,3.1,0.7l1.2,3.1c-1.5,0.1-3-0.2-4.3-1c-4.4-2.6-8-8.9-8-14.1s3.6-7.3,8-4.7
		c0.1,0.1,0.2,0.1,0.3,0.2V92.1z M53.3,110.1c-0.1-0.1-0.2-0.1-0.3-0.2c-3.1-1.8-5.6-0.3-5.6,3.3c0.2,4,2.3,7.6,5.6,9.9
		c3.1,1.8,5.6,0.3,5.6-3.3c0-1.5-0.4-3-1-4.3l1.9-0.5c0.9,2,1.4,4.1,1.5,6.3c0,5.2-3.6,7.3-8,4.7s-8-8.9-8-14.1s3.6-7.3,8-4.7
		c0.1,0.1,0.2,0.1,0.3,0.2V110.1L53.3,110.1z M89.3,129.1c-0.1-0.1-0.2-0.1-0.3-0.2c-3.1-1.8-5.6-0.3-5.6,3.3c0.2,4,2.3,7.6,5.6,9.9
		c0.9,0.6,2,0.9,3.1,0.7l1.2,3.1c-1.5,0.1-3-0.2-4.3-1c-4.4-2.6-8-8.9-8-14.1s3.6-7.3,8-4.7c0.1,0.1,0.2,0.1,0.3,0.2V129.1z M0,14
		l114,66V67L0,0V14z"/>
</g>
</svg>
