<?xml version="1.0" encoding="utf-8"?>
<!-- Generator: Adobe Illustrator 22.0.1, SVG Export Plug-In . SVG Version: 6.00 Build 0)  -->
<svg version="1.1" id="codeguard-2" xmlns="http://www.w3.org/2000/svg" xmlns:xlink="http://www.w3.org/1999/xlink" x="0px"
	 y="0px" viewBox="0 0 375 324" style="enable-background:new 0 0 375 324;" xml:space="preserve">
<style type="text/css">
	.st0{fill:#76C8FC;}
	.st1{fill:#056CEA;}
	.st2{fill:#FFFFFF;}
	.st3{fill:#3693E3;}
	.st4{fill:#FEFEFE;}
	.st5{fill:#A5DFFD;}
	.st6{fill:#A5DFFD;fill-opacity:0;}
</style>
<g id="photo">
	<g id="_2">
		<path id="Prostokąt_1186_kopia_3" class="st0" d="M242,226.5c0,0.2,0,0.4,0,0.6c0,12.6-8.7,27.9-19.5,34.2
			c-5.1,3-9.7,3.4-13.2,1.7l-0.1,0.1l-105.1-58.6c3.3,1.1,7.3,0.5,11.8-2.1c10.5-6.2,19-21.2,19-33.6c0-0.3,0-0.5,0-0.8l0,0V76
			l107,61.8L242,226.5L242,226.5z M144,89.8c-0.1-0.7-0.5-1.4-1.1-1.8l-2.8-1.8c-0.6-0.4-1.1-0.1-1.1,0.5v1.5
			c0.1,0.7,0.5,1.4,1.1,1.8l2.8,1.8c0.6,0.4,1.1,0.1,1.1-0.5V89.8z M144,97.8c-0.1-0.7-0.5-1.4-1.1-1.8l-2.8-1.8
			c-0.6-0.4-1.1-0.1-1.1,0.5v1.5c0.1,0.7,0.5,1.4,1.1,1.8l2.8,1.8c0.6,0.4,1.1,0.1,1.1-0.5V97.8z M144,105.8
			c-0.1-0.7-0.5-1.4-1.1-1.8l-2.8-1.8c-0.6-0.4-1.1-0.1-1.1,0.5v1.5c0.1,0.7,0.5,1.4,1.1,1.8l2.8,1.8c0.6,0.4,1.1,0.1,1.1-0.5V105.8
			z M144,113.8c-0.1-0.7-0.5-1.4-1.1-1.8l-2.8-1.8c-0.6-0.4-1.1-0.1-1.1,0.5v1.5c0.1,0.7,0.5,1.4,1.1,1.8l2.8,1.8
			c0.6,0.4,1.1,0.1,1.1-0.5V113.8z M144,121.8c-0.1-0.7-0.5-1.4-1.1-1.8l-2.8-1.8c-0.6-0.4-1.1-0.1-1.1,0.5v1.5
			c0.1,0.7,0.5,1.4,1.1,1.8l2.8,1.8c0.6,0.4,1.1,0.1,1.1-0.5V121.8z M144,129.8c-0.1-0.7-0.5-1.4-1.1-1.8l-2.8-1.8
			c-0.6-0.4-1.1-0.1-1.1,0.5v1.5c0.1,0.7,0.5,1.4,1.1,1.8l2.8,1.8c0.6,0.4,1.1,0.1,1.1-0.5V129.8z M144,137.8
			c-0.1-0.7-0.5-1.4-1.1-1.8l-2.8-1.8c-0.6-0.4-1.1-0.1-1.1,0.5v1.5c0.1,0.7,0.5,1.4,1.1,1.8l2.8,1.8c0.6,0.4,1.1,0.1,1.1-0.5V137.8
			z M144,145.8c-0.1-0.7-0.5-1.4-1.1-1.8l-2.8-1.8c-0.6-0.4-1.1-0.1-1.1,0.5v1.5c0.1,0.7,0.5,1.4,1.1,1.8l2.8,1.8
			c0.6,0.4,1.1,0.1,1.1-0.5V145.8z M144,153.8c-0.1-0.7-0.5-1.4-1.1-1.8l-2.8-1.8c-0.6-0.4-1.1-0.1-1.1,0.5v1.5
			c0.1,0.7,0.5,1.4,1.1,1.8l2.8,1.8c0.6,0.4,1.1,0.1,1.1-0.5V153.8z M144,161.8c-0.1-0.7-0.5-1.4-1.1-1.8l-2.8-1.8
			c-0.6-0.4-1.1-0.1-1.1,0.5v1.5c0.1,0.7,0.5,1.4,1.1,1.8l2.8,1.8c0.6,0.4,1.1,0.1,1.1-0.5V161.8z M144,169.8
			c-0.1-0.7-0.5-1.4-1.1-1.8l-2.8-1.8c-0.6-0.4-1.1-0.1-1.1,0.5v1.5c0.1,0.7,0.5,1.4,1.1,1.8l2.8,1.8c0.6,0.4,1.1,0.1,1.1-0.5V169.8
			z M144,177.8c-0.1-0.7-0.5-1.4-1.1-1.8l-2.8-1.8c-0.6-0.4-1.1-0.1-1.1,0.5v1.5c0.1,0.7,0.5,1.4,1.1,1.8l2.8,1.8
			c0.6,0.4,1.1,0.1,1.1-0.5V177.8z M238,142.8c-0.1-0.7-0.5-1.4-1.1-1.8l-2.8-1.8c-0.6-0.4-1.1-0.1-1.1,0.5v1.5
			c0.1,0.7,0.5,1.4,1.1,1.8l2.8,1.8c0.6,0.4,1.1,0.1,1.1-0.5V142.8z M238,150.8c-0.1-0.7-0.5-1.4-1.1-1.8l-2.8-1.8
			c-0.6-0.4-1.1-0.1-1.1,0.5v1.5c0.1,0.7,0.5,1.4,1.1,1.8l2.8,1.8c0.6,0.4,1.1,0.1,1.1-0.5V150.8z M238,158.8
			c-0.1-0.7-0.5-1.4-1.1-1.8l-2.8-1.8c-0.6-0.4-1.1-0.1-1.1,0.5v1.5c0.1,0.7,0.5,1.4,1.1,1.8l2.8,1.8c0.6,0.4,1.1,0.1,1.1-0.5V158.8
			z M238,166.8c-0.1-0.7-0.5-1.4-1.1-1.8l-2.8-1.8c-0.6-0.4-1.1-0.1-1.1,0.5v1.5c0.1,0.7,0.5,1.4,1.1,1.8l2.8,1.8
			c0.6,0.4,1.1,0.1,1.1-0.5V166.8z M238,174.8c-0.1-0.7-0.5-1.4-1.1-1.8l-2.8-1.8c-0.6-0.4-1.1-0.1-1.1,0.5v1.5
			c0.1,0.7,0.5,1.4,1.1,1.8l2.8,1.8c0.6,0.4,1.1,0.1,1.1-0.5V174.8z M238,182.8c-0.1-0.7-0.5-1.4-1.1-1.8l-2.8-1.8
			c-0.6-0.4-1.1-0.1-1.1,0.5v1.5c0.1,0.7,0.5,1.4,1.1,1.8l2.8,1.8c0.6,0.4,1.1,0.1,1.1-0.5V182.8z M238,190.8
			c-0.1-0.7-0.5-1.4-1.1-1.8l-2.8-1.8c-0.6-0.4-1.1-0.1-1.1,0.5v1.5c0.1,0.7,0.5,1.4,1.1,1.8l2.8,1.8c0.6,0.4,1.1,0.1,1.1-0.5V190.8
			z M238,198.8c-0.1-0.7-0.5-1.4-1.1-1.8l-2.8-1.8c-0.6-0.4-1.1-0.1-1.1,0.5v1.5c0.1,0.7,0.5,1.4,1.1,1.8l2.8,1.8
			c0.6,0.4,1.1,0.1,1.1-0.5V198.8z M238,206.8c-0.1-0.7-0.5-1.4-1.1-1.8l-2.8-1.8c-0.6-0.4-1.1-0.1-1.1,0.5v1.5
			c0.1,0.7,0.5,1.4,1.1,1.8l2.8,1.8c0.6,0.4,1.1,0.1,1.1-0.5V206.8z M238,214.8c-0.1-0.7-0.5-1.4-1.1-1.8l-2.8-1.8
			c-0.6-0.4-1.1-0.1-1.1,0.5v1.5c0.1,0.7,0.5,1.4,1.1,1.8l2.8,1.8c0.6,0.4,1.1,0.1,1.1-0.5V214.8z"/>
		<path id="Prostokąt_1199_kopia" class="st1" d="M150,174.4V97l76,43.6V218L150,174.4z M206.5,250.3c-5.1,3-9.7,3.4-13.2,1.7
			l-0.1,0.1l-73.9-40.4c3.2,1.1,7.3,0.5,11.7-2.1c8.6-5.1,15.9-16.1,18.2-26.8l75.2,43.2C221.5,235.8,214.6,245.6,206.5,250.3
			L206.5,250.3z"/>
		<path id="Kształt_1154_kopia" class="st2" d="M187.7,154.4v7.3c2.7,1.4,5.2,3.3,7.3,5.5c-1.7,2.7-4.1,4.3-7.3,4.2v8.2
			c7.1,1.1,12.6-3.4,15.1-12c-1.8-2.1-3.6-4-5.6-5.9C194.3,159,191.1,156.5,187.7,154.4L187.7,154.4L187.7,154.4z M187.7,145
			c3.8,2.5,7.3,5.3,10.4,8.6c0,1.3-0.1,2.5-0.2,3.7c2.1,1.9,4,3.9,5.9,6.1c0.6-3.3,0.8-6.7,0.6-10.1c-4.8-5.8-10.4-10.9-16.7-15.1
			L187.7,145L187.7,145L187.7,145z M168.1,132.3c-0.6,16.8,6.3,35.1,16.7,45.6v-8.4c-6.8-8.3-9.8-19.1-10.5-29.6
			c3.7,0.5,7.2,1.7,10.5,3.5v-6.9C179.6,133.8,173.9,132.4,168.1,132.3L168.1,132.3z M165.5,129.3c12.6-1.3,29.5,8,42,24.1
			c0.6,19.2-6.7,31.2-21.1,28.9C169.7,167.5,165.2,147.5,165.5,129.3L165.5,129.3z M163.1,126.2c-1.1,20.2,5.3,42.6,23.3,59.3
			c17.3,2.9,24.3-10.7,23.5-32.3c-14.4-18.5-32.1-28.8-46.5-27L163.1,126.2L163.1,126.2L163.1,126.2z"/>
		<path id="Prostokąt_1186_kopia" class="st3" d="M203,250v0.2c0,6.4,2.3,10.8,6,12.7l0,0.1L96.9,204.5L87,192.4V115l107.1,59.1
			c4.9,0.7,8.3,4.9,8.8,11.7l0.1,0.1v1.6c0,0.1,0,0.1,0,0.2s0,0.1,0,0.2V250z"/>
		<path id="Prostokąt_1186" class="st0" d="M184,176.6c-10.5,6.2-19,21.2-19,33.6c0,0.3,0,0.5,0,0.8l0,0v102L58,251.2v-98.7l0,0
			c0-0.2,0-0.4,0-0.6c0-12.6,8.7-27.9,19.5-34.2c5.1-3,9.7-3.4,13.2-1.7l0.1-0.1l105.1,58.5C192.6,173.4,188.5,174,184,176.6z
			 M67,159.8c-0.1-0.7-0.5-1.4-1.1-1.8l-2.8-1.8c-0.6-0.4-1.1-0.1-1.1,0.5v1.5c0.1,0.7,0.5,1.4,1.1,1.8l2.8,1.8
			c0.6,0.4,1.1,0.1,1.1-0.5V159.8z M67,167.8c-0.1-0.7-0.5-1.4-1.1-1.8l-2.8-1.8c-0.6-0.4-1.1-0.1-1.1,0.5v1.5
			c0.1,0.7,0.5,1.4,1.1,1.8l2.8,1.8c0.6,0.4,1.1,0.1,1.1-0.5V167.8z M67,175.8c-0.1-0.7-0.5-1.4-1.1-1.8l-2.8-1.8
			c-0.6-0.4-1.1-0.1-1.1,0.5v1.5c0.1,0.7,0.5,1.4,1.1,1.8l2.8,1.8c0.6,0.4,1.1,0.1,1.1-0.5V175.8z M67,183.8
			c-0.1-0.7-0.5-1.4-1.1-1.8l-2.8-1.8c-0.6-0.4-1.1-0.1-1.1,0.5v1.5c0.1,0.7,0.5,1.4,1.1,1.8l2.8,1.8c0.6,0.4,1.1,0.1,1.1-0.5V183.8
			z M67,191.8c-0.1-0.7-0.5-1.4-1.1-1.8l-2.8-1.8c-0.6-0.4-1.1-0.1-1.1,0.5v1.5c0.1,0.7,0.5,1.4,1.1,1.8l2.8,1.8
			c0.6,0.4,1.1,0.1,1.1-0.5V191.8z M67,199.8c-0.1-0.7-0.5-1.4-1.1-1.8l-2.8-1.8c-0.6-0.4-1.1-0.1-1.1,0.5v1.5
			c0.1,0.7,0.5,1.4,1.1,1.8l2.8,1.8c0.6,0.4,1.1,0.1,1.1-0.5V199.8z M67,207.8c-0.1-0.7-0.5-1.4-1.1-1.8l-2.8-1.8
			c-0.6-0.4-1.1-0.1-1.1,0.5v1.5c0.1,0.7,0.5,1.4,1.1,1.8l2.8,1.8c0.6,0.4,1.1,0.1,1.1-0.5V207.8z M67,215.8
			c-0.1-0.7-0.5-1.4-1.1-1.8l-2.8-1.8c-0.6-0.4-1.1-0.1-1.1,0.5v1.5c0.1,0.7,0.5,1.4,1.1,1.8l2.8,1.8c0.6,0.4,1.1,0.1,1.1-0.5V215.8
			z M67,223.8c-0.1-0.7-0.5-1.4-1.1-1.8l-2.8-1.8c-0.6-0.4-1.1-0.1-1.1,0.5v1.5c0.1,0.7,0.5,1.4,1.1,1.8l2.8,1.8
			c0.6,0.4,1.1,0.1,1.1-0.5V223.8z M67,231.8c-0.1-0.7-0.5-1.4-1.1-1.8l-2.8-1.8c-0.6-0.4-1.1-0.1-1.1,0.5v1.5
			c0.1,0.7,0.5,1.4,1.1,1.8l2.8,1.8c0.6,0.4,1.1,0.1,1.1-0.5V231.8z M67,239.8c-0.1-0.7-0.5-1.4-1.1-1.8l-2.8-1.8
			c-0.6-0.4-1.1-0.1-1.1,0.5v1.5c0.1,0.7,0.5,1.4,1.1,1.8l2.8,1.8c0.6,0.4,1.1,0.1,1.1-0.5V239.8z M67,247.8
			c-0.1-0.7-0.5-1.4-1.1-1.8l-2.8-1.8c-0.6-0.4-1.1-0.1-1.1,0.5v1.5c0.1,0.7,0.5,1.4,1.1,1.8l2.8,1.8c0.6,0.4,1.1,0.1,1.1-0.5V247.8
			z M161,214.8c-0.1-0.7-0.5-1.4-1.1-1.8l-2.8-1.8c-0.6-0.4-1.1-0.1-1.1,0.5v1.5c0.1,0.7,0.5,1.4,1.1,1.8l2.8,1.8
			c0.6,0.4,1.1,0.1,1.1-0.5V214.8z M161,222.8c-0.1-0.7-0.5-1.4-1.1-1.8l-2.8-1.8c-0.6-0.4-1.1-0.1-1.1,0.5v1.5
			c0.1,0.7,0.5,1.4,1.1,1.8l2.8,1.8c0.6,0.4,1.1,0.1,1.1-0.5V222.8z M161,230.8c-0.1-0.7-0.5-1.4-1.1-1.8l-2.8-1.8
			c-0.6-0.4-1.1-0.1-1.1,0.5v1.5c0.1,0.7,0.5,1.4,1.1,1.8l2.8,1.8c0.6,0.4,1.1,0.1,1.1-0.5V230.8z M161,238.8
			c-0.1-0.7-0.5-1.4-1.1-1.8l-2.8-1.8c-0.6-0.4-1.1-0.1-1.1,0.5v1.5c0.1,0.7,0.5,1.4,1.1,1.8l2.8,1.8c0.6,0.4,1.1,0.1,1.1-0.5V238.8
			z M161,246.8c-0.1-0.7-0.5-1.4-1.1-1.8l-2.8-1.8c-0.6-0.4-1.1-0.1-1.1,0.5v1.5c0.1,0.7,0.5,1.4,1.1,1.8l2.8,1.8
			c0.6,0.4,1.1,0.1,1.1-0.5V246.8z M161,254.8c-0.1-0.7-0.5-1.4-1.1-1.8l-2.8-1.8c-0.6-0.4-1.1-0.2-1.1,0.5v1.5
			c0.1,0.7,0.5,1.4,1.1,1.8l2.8,1.8c0.6,0.4,1.1,0.2,1.1-0.5V254.8z M161,262.8c-0.1-0.7-0.5-1.4-1.1-1.8l-2.8-1.8
			c-0.6-0.4-1.1-0.2-1.1,0.5v1.5c0.1,0.7,0.5,1.4,1.1,1.8l2.8,1.8c0.6,0.4,1.1,0.2,1.1-0.5V262.8z M161,270.8
			c-0.1-0.7-0.5-1.4-1.1-1.8l-2.8-1.8c-0.6-0.4-1.1-0.2-1.1,0.5v1.5c0.1,0.7,0.5,1.4,1.1,1.8l2.8,1.8c0.6,0.4,1.1,0.2,1.1-0.5V270.8
			z M161,278.8c-0.1-0.7-0.5-1.4-1.1-1.8l-2.8-1.8c-0.6-0.4-1.1-0.2-1.1,0.5v1.5c0.1,0.7,0.5,1.4,1.1,1.8l2.8,1.8
			c0.6,0.4,1.1,0.2,1.1-0.5V278.8z M161,286.8c-0.1-0.7-0.5-1.4-1.1-1.8l-2.8-1.8c-0.6-0.4-1.1-0.2-1.1,0.5v1.5
			c0.1,0.7,0.5,1.4,1.1,1.8l2.8,1.8c0.6,0.4,1.1,0.2,1.1-0.5V286.8z M161,294.8c-0.1-0.7-0.5-1.4-1.1-1.8l-2.8-1.8
			c-0.6-0.4-1.1-0.2-1.1,0.5v1.5c0.1,0.7,0.5,1.4,1.1,1.8l2.8,1.8c0.6,0.4,1.1,0.2,1.1-0.5V294.8z M161,302.8
			c-0.1-0.7-0.5-1.4-1.1-1.8l-2.8-1.8c-0.6-0.4-1.1-0.2-1.1,0.5v1.5c0.1,0.7,0.5,1.4,1.1,1.8l2.8,1.8c0.6,0.4,1.1,0.2,1.1-0.5V302.8
			z"/>
		<path id="Prostokąt_1186_kopia_4" class="st1" d="M169,167.6c-10.5,6.2-19,21.2-19,33.6c0,0.3,0,0.5,0,0.8l0,0v2l-55.8-32.1
			c0,0,0,0-0.1,0L74,160.3v-0.1l0,0c0.3-12.5,8.9-27.4,19.5-33.5c5.1-3,9.7-3.4,13.2-1.7l0.1-0.1l74,40.5
			C177.5,164.4,173.4,165,169,167.6z"/>
		<path id="Prostokąt_1199" class="st4" d="M73,170l76,43.6V293l-76-43.6V170z"/>
		<path id="Prostokąt_1199_kopia_2" class="st1" d="M73,170l76,43.6v8.4l-76-43.6V170L73,170z"/>
		<path id="Kształt_1209" class="st5" d="M77,206v-21l67,38.1v21L77,206z M93,230.1L77,221v-11l16,9.1V230.1z M93,256.1L77,247v-22
			l16,9.1V256.1L93,256.1z M142.8,251l-46.6-27v-2l46.6,27V251z M111.8,238l-15.6-9v-2l15.6,9V238z M123.8,253l-27.6-16v-2l27.6,16
			V253z M131.8,263l-35.6-21v-2l35.6,21V263z"/>
		<path id="Elipsa_1208_kopia" class="st4" d="M78.3,176.2c0.8,0.5,1.3,1.3,1.3,2.3c0.1,0.4-0.2,0.8-0.6,0.9c-0.2,0-0.5,0-0.7-0.2
			c-0.8-0.5-1.3-1.3-1.3-2.2c-0.1-0.4,0.2-0.8,0.6-0.9C77.9,176,78.1,176,78.3,176.2z M82,178.4c0.8,0.5,1.3,1.3,1.3,2.3
			c0.1,0.4-0.2,0.8-0.6,0.9c-0.2,0-0.5,0-0.7-0.2c-0.8-0.5-1.3-1.3-1.3-2.2c-0.1-0.4,0.2-0.8,0.6-0.9
			C81.6,178.2,81.9,178.3,82,178.4z M85.8,180.7c0.8,0.5,1.3,1.3,1.3,2.3c0.1,0.4-0.2,0.8-0.6,0.9c-0.2,0-0.5,0-0.7-0.2
			c-0.8-0.5-1.3-1.3-1.3-2.2c-0.1-0.4,0.2-0.8,0.6-0.9C85.4,180.5,85.6,180.5,85.8,180.7z"/>
	</g>
	<g id="scan_kopia">
		<path id="Kształt_1158_kopia" class="st1" d="M128,310.9v-5.8l17,9.9v-17.2l4,2.3V323L128,310.9z M145,232.4l-17-10v-5l21,12.3
			V254l-4-2.3V232.4z M59,181.8L44,173v20l-4-2.3V166l19,11.1V181.8L59,181.8z M44,256.4l15,8.7v6.1l-19-10.9v-23.4l4,2.3V256.4
			L44,256.4z"/>
		<path id="Kształt_1172" class="st6" d="M40,215v44.4L149,322v-47"/>
	</g>
</g>
</svg>
